# xmcd
#
# Track frame offsets:
#	150
#	17077
#	28412
#	45535
#	62217
#	78745
#	90746
#	102959
#	114878
#	131799
#	144774
#	154145
#	168520
#	178983
#	195075
#	205302
#	221448
#	234796
#	247983
#	263094
#	276745
#
# Disc length: 3919 seconds
#
# Revision: 3
# Processed by: cddbd v1.5.2PL0 Copyright (c) Steve Scherf et al.
# Submitted via: EasyCDDAExtractor 15.3.0.1
#
DISCID=290f4d15
DTITLE=Baggalútur - Aparnir í Eden
DYEAR=2006
DGENRE=Country
TTITLE0=Undurfagra ukulelemær
TTITLE1=Aparnir í Eden
TTITLE2=Ég hélt fram hjá þér
TTITLE3=Allt fyrir mig
TTITLE4=Hún fór að fitna
TTITLE5=Vina komdu heim með mér
TTITLE6=Fallegri í gær
TTITLE7=Ljúfi Einar
TTITLE8=Ballantines
TTITLE9=Þegar allt um þrýtur
TTITLE10=Má ég sjá mangóið þitt?
TTITLE11=Tveir vinir
TTITLE12=Sumarfrí
TTITLE13=Ég elska konur
TTITLE14=Hófí
TTITLE15=Ég sef í bílnum
TTITLE16=Skátarnir
TTITLE17=Stíflum þessar sprænur
TTITLE18=Brimbretta-Baldur
TTITLE19=Dyrhólaey
TTITLE20=Færeyjar
EXTD=YEAR: 2006
EXTT0=
EXTT1=
EXTT2=
EXTT3=
EXTT4=
EXTT5=
EXTT6=
EXTT7=
EXTT8=
EXTT9=
EXTT10=
EXTT11=
EXTT12=
EXTT13=
EXTT14=
EXTT15=
EXTT16=
EXTT17=
EXTT18=
EXTT19=
EXTT20=
PLAYORDER=
